<svg id="visual" viewBox="0 0 900 600" width="900" height="600" xmlns="http://www.w3.org/2000/svg" xmlns:xlink="http://www.w3.org/1999/xlink" version="1.1"><path d="M0 157L11.5 158C23 159 46 161 69 163C92 165 115 167 138.2 166C161.3 165 184.7 161 207.8 153C231 145 254 133 277 136C300 139 323 157 346 168C369 179 392 183 415.2 180C438.3 177 461.7 167 484.8 157C508 147 531 137 554 130C577 123 600 119 623 119C646 119 669 123 692.2 144C715.3 165 738.7 203 761.8 204C785 205 808 169 831 159C854 149 877 165 888.5 173L900 181L900 0L888.5 0C877 0 854 0 831 0C808 0 785 0 761.8 0C738.7 0 715.3 0 692.2 0C669 0 646 0 623 0C600 0 577 0 554 0C531 0 508 0 484.8 0C461.7 0 438.3 0 415.2 0C392 0 369 0 346 0C323 0 300 0 277 0C254 0 231 0 207.8 0C184.7 0 161.3 0 138.2 0C115 0 92 0 69 0C46 0 23 0 11.5 0L0 0Z" fill="#aabddc"></path><path d="M0 313L11.5 317C23 321 46 329 69 335C92 341 115 345 138.2 343C161.3 341 184.7 333 207.8 331C231 329 254 333 277 339C300 345 323 353 346 361C369 369 392 377 415.2 377C438.3 377 461.7 369 484.8 361C508 353 531 345 554 337C577 329 600 321 623 319C646 317 669 321 692.2 333C715.3 345 738.7 365 761.8 364C785 363 808 341 831 333C854 325 877 331 888.5 334L900 337L900 179L888.5 171C877 163 854 147 831 157C808 167 785 203 761.8 202C738.7 201 715.3 163 692.2 142C669 121 646 117 623 117C600 117 577 121 554 128C531 135 508 145 484.8 155C461.7 165 438.3 175 415.2 178C392 181 369 177 346 166C323 155 300 137 277 134C254 131 231 143 207.8 151C184.7 159 161.3 163 138.2 164C115 165 92 163 69 161C46 159 23 157 11.5 156L0 155Z" fill="#98afd4"></path><path d="M0 445L11.5 449C23 453 46 461 69 463C92 465 115 461 138.2 458C161.3 455 184.7 453 207.8 456C231 459 254 467 277 469C300 471 323 467 346 467C369 467 392 471 415.2 474C438.3 477 461.7 479 484.8 476C508 473 531 465 554 459C577 453 600 449 623 447C646 445 669 445 692.2 448C715.3 451 738.7 457 761.8 460C785 463 808 463 831 462C854 461 877 459 888.5 458L900 457L900 335L888.5 332C877 329 854 323 831 331C808 339 785 361 761.8 362C738.7 363 715.3 343 692.2 331C669 319 646 315 623 317C600 319 577 327 554 335C531 343 508 351 484.8 359C461.7 367 438.3 375 415.2 375C392 375 369 367 346 359C323 351 300 343 277 337C254 331 231 327 207.8 329C184.7 331 161.3 339 138.2 341C115 343 92 339 69 333C46 327 23 319 11.5 315L0 311Z" fill="#85a1cc"></path><path d="M0 517L11.5 521C23 525 46 533 69 538C92 543 115 545 138.2 543C161.3 541 184.7 535 207.8 534C231 533 254 537 277 537C300 537 323 533 346 532C369 531 392 533 415.2 535C438.3 537 461.7 539 484.8 538C508 537 531 533 554 535C577 537 600 545 623 548C646 551 669 549 692.2 548C715.3 547 738.7 547 761.8 548C785 549 808 551 831 551C854 551 877 549 888.5 548L900 547L900 455L888.5 456C877 457 854 459 831 460C808 461 785 461 761.8 458C738.7 455 715.3 449 692.2 446C669 443 646 443 623 445C600 447 577 451 554 457C531 463 508 471 484.8 474C461.7 477 438.3 475 415.2 472C392 469 369 465 346 465C323 465 300 469 277 467C254 465 231 457 207.8 454C184.7 451 161.3 453 138.2 456C115 459 92 463 69 461C46 459 23 451 11.5 447L0 443Z" fill="#7e99c4"></path><path d="M0 601L11.5 601C23 601 46 601 69 601C92 601 115 601 138.2 601C161.3 601 184.7 601 207.8 601C231 601 254 601 277 601C300 601 323 601 346 601C369 601 392 601 415.2 601C438.3 601 461.7 601 484.8 601C508 601 531 601 554 601C577 601 600 601 623 601C646 601 669 601 692.2 601C715.3 601 738.7 601 761.8 601C785 601 808 601 831 601C854 601 877 601 888.5 601L900 601L900 545L888.5 546C877 547 854 549 831 549C808 549 785 547 761.8 546C738.7 545 715.3 545 692.2 546C669 547 646 549 623 546C600 543 577 535 554 533C531 531 508 535 484.8 536C461.7 537 438.3 535 415.2 533C392 531 369 529 346 530C323 531 300 535 277 535C254 535 231 531 207.8 532C184.7 533 161.3 539 138.2 541C115 543 92 541 69 536C46 531 23 523 11.5 519L0 515Z" fill="#6c83a8"></path></svg>